<?xml version="1.0" encoding="utf-8"?>
<!-- Generator: Adobe Illustrator 16.0.0, SVG Export Plug-In . SVG Version: 6.00 Build 0)  -->
<!DOCTYPE svg PUBLIC "-//W3C//DTD SVG 1.1//EN" "http://www.w3.org/Graphics/SVG/1.1/DTD/svg11.dtd">
<svg version="1.1" xmlns="http://www.w3.org/2000/svg" xmlns:xlink="http://www.w3.org/1999/xlink" x="0px" y="0px"
	 width="423.998px" height="418.67px" viewBox="-77.002 -80.33 423.998 418.67"
	 enable-background="new -77.002 -80.33 423.998 418.67" xml:space="preserve">
<g id="Layer_1">
	<title>middle</title>
	<desc>made with tinkercad</desc>
	<line fill="none" stroke="#0000FF" stroke-width="0.0283" x1="74.512" y1="-80.33" x2="95.176" y2="-33.448"/>
	<line fill="none" stroke="#0000FF" stroke-width="0.0283" x1="-77.002" y1="-21.83" x2="10.191" y2="16.62"/>
	<line fill="none" stroke="#0000FF" stroke-width="0.0283" x1="-77.002" y1="104.67" x2="-34.07" y2="109.66"/>
	<line fill="none" stroke="#0000FF" stroke-width="0.0283" x1="-77.002" y1="250.67" x2="-10.822" y2="221.718"/>
	<line fill="none" stroke="#0000FF" stroke-width="0.0283" x1="258.608" y1="250.67" x2="337.998" y2="338.34"/>
	<line fill="none" stroke="#0000FF" stroke-width="0.0283" x1="294.94" y1="192.648" x2="346.996" y2="194.67"/>
	<line fill="none" stroke="#0000FF" stroke-width="0.0283" x1="302.382" y1="99.596" x2="346.996" y2="67.67"/>
	<line fill="none" stroke="#0000FF" stroke-width="0.0283" x1="259.803" y1="16.62" x2="346.996" y2="-56.889"/>
	<line fill="none" stroke="#0000FF" stroke-width="0.0283" x1="195.696" y1="-26.535" x2="234.998" y2="-86.33"/>
	<line fill="none" stroke="#0000FF" stroke-width="0.0283" x1="28.547" y1="31.925" x2="134.997" y2="129.168"/>
	<line fill="none" stroke="#0000FF" stroke-width="0.0283" x1="134.997" y1="129.168" x2="242.121" y2="31.925"/>
	<line fill="none" stroke="#0000FF" stroke-width="0.0283" x1="134.997" y1="129.168" x2="279.998" y2="129.026"/>
	<line fill="none" stroke="#0000FF" stroke-width="0.0283" x1="134.997" y1="129.168" x2="-9.333" y2="129.026"/>
	<line fill="none" stroke="#0000FF" stroke-width="0.0283" x1="134.997" y1="129.168" x2="140.667" y2="-13.053"/>
	<line fill="none" stroke="#0000FF" stroke-width="0.0283" x1="134.997" y1="129.168" x2="14.516" y2="205.619"/>
	<line fill="none" stroke="#0000FF" stroke-width="0.0283" x1="134.997" y1="129.168" x2="255.479" y2="205.619"/>
	<line fill="none" stroke="#0000FF" stroke-width="0.0283" x1="134.997" y1="129.168" x2="112.329" y2="205.619"/>
	<line fill="none" stroke="#0000FF" stroke-width="0.0283" x1="83.966" y1="205.619" x2="112.329" y2="205.619"/>
	<line fill="none" stroke="#0000FF" stroke-width="0.0283" x1="83.966" y1="205.619" x2="112.329" y2="253.277"/>
	<line fill="none" stroke="#0000FF" stroke-width="0.0283" x1="112.329" y1="253.277" x2="215.347" y2="345.67"/>
	<line fill="none" stroke="#0000FF" stroke-width="0.0283" x1="62.832" y1="338.34" x2="128.492" y2="267.092"/>
</g>
<g id="Layer_2">
	<path fill="none" stroke="#0000FF" stroke-width="0.0283" d="M258.424,205.561l-146.096,0.06v47.66h73.7v12.31l0,0v29.75
		l0.189,0.51c69.23-21.75,119.44-86.43,119.44-162.85c0-94.25-76.41-170.66-170.66-170.66c-94.26,0-170.66,76.41-170.66,170.66
		c0,76.59,50.44,141.39,119.91,163l-0.28-0.66v-89.72l-71.712-0.036c-13.688-22.1-21.589-48.16-21.589-76.066
		c0-79.896,64.769-144.666,144.666-144.666c79.897,0,144.666,64.769,144.666,144.666
		C279.998,157.414,272.103,183.466,258.424,205.561z"/>
</g>
</svg>
